STARTFONT 2.1
COMMENT Possibly created or at least modified by DeCurs
COMMENT (c) 2001 Pasi Savolainen <pvsavola@cc.hut.fi>
FONT cursor
SIZE 31 78 78
FONTBOUNDINGBOX 64 64 32 32
STARTPROPERTIES 3
FONT_ASCENT 16
FONT_DESCENT 17
DEFAULT_CHAR 27
ENDPROPERTIES
CHARS 154
STARTCHAR X_cursor
ENCODING 0
SWIDTH 999 0
DWIDTH 31 0
BBX 30 35 0 -35
BITMAP
80000000
C0000000
A0000000
90000000
88000000
BC000000
C0000000
BFFC3FFC
20042004
20042004
27E427E4
24242424
24242424
24242424
24242424
27FFE7E4
20002404
20002404
3FFFE7FC
00242400
00242400
00242400
00242400
3FE7FFFC
20240004
20240004
27E7FFE4
24242424
24242424
24242424
24242424
27E427E4
20042004
20042004
3FFC3FFC
ENDCHAR
STARTCHAR X_cursor_mask
ENCODING 1
SWIDTH 999 0
DWIDTH 31 0
BBX 30 35 0 -35
BITMAP
80000000
C0000000
E0000000
F0000000
F8000000
FC000000
C0000000
BFFC3FFC
3FFC3FFC
3FFC3FFC
3FFC3FFC
3C3C3C3C
3C3C3C3C
3C3C3C3C
3C3C3C3C
3FFFFFFC
3FFFFFFC
3FFFFFFC
3FFFFFFC
003C3C00
003C3C00
003C3C00
003C3C00
3FFFFFFC
3FFFFFFC
3FFFFFFC
3FFFFFFC
3C3C3C3C
3C3C3C3C
3C3C3C3C
3C3C3C3C
3FFC3FFC
3FFC3FFC
3FFC3FFC
3FFC3FFC
ENDCHAR
STARTCHAR arrow
ENCODING 2
SWIDTH 547 0
DWIDTH 17 0
BBX 16 16 -15 -16
BITMAP
0007
0019
0061
0182
0602
1804
2004
3E08
0408
0890
1190
22A0
44A0
8840
5000
2000
ENDCHAR
STARTCHAR arrow_mask
ENCODING 3
SWIDTH 547 0
DWIDTH 17 0
BBX 16 16 -15 -16
BITMAP
0007
001F
007F
01FE
07FE
1FFC
3FFC
3FF8
07F8
0FF0
1FF0
3EE0
7CE0
F840
7000
2000
ENDCHAR
STARTCHAR based_arrow_down
ENCODING 4
SWIDTH 354 0
DWIDTH 11 0
BBX 10 12 -4 -1
BITMAP
FFC0
8040
FFC0
8040
F3C0
1200
1200
7380
5280
6180
3300
1E00
ENDCHAR
STARTCHAR based_arrow_down_mask
ENCODING 5
SWIDTH 354 0
DWIDTH 11 0
BBX 10 12 -4 -1
BITMAP
FFC0
FFC0
FFC0
FFC0
FFC0
1E00
1E00
7F80
7F80
7F80
3F00
1E00
ENDCHAR
STARTCHAR based_arrow_up
ENCODING 6
SWIDTH 354 0
DWIDTH 11 0
BBX 10 12 -4 -12
BITMAP
0C00
1200
6180
5280
7380
1200
1200
F3C0
8040
FFC0
8040
FFC0
ENDCHAR
STARTCHAR based_arrow_up_mask
ENCODING 7
SWIDTH 354 0
DWIDTH 11 0
BBX 10 12 -4 -12
BITMAP
0C00
1E00
7F80
7F80
7F80
1E00
1E00
FFC0
FFC0
FFC0
FFC0
FFC0
ENDCHAR
STARTCHAR boat
ENCODING 8
SWIDTH 547 0
DWIDTH 17 0
BBX 16 8 -14 -5
BITMAP
0100
07C0
8860
FFFF
0018
0020
0040
FFC0
ENDCHAR
STARTCHAR boat_mask
ENCODING 9
SWIDTH 547 0
DWIDTH 17 0
BBX 16 9 -14 -6
BITMAP
0700
0FC0
9FE0
FFFF
FFFF
FFFF
FFF8
FFE0
FFC0
ENDCHAR
STARTCHAR bogosity
ENCODING 10
SWIDTH 515 0
DWIDTH 16 0
BBX 15 16 -7 -9
BITMAP
FBBE
8AA2
EAAE
2AA8
EEEE
8002
AEEA
AAAA
AAAA
AEEA
8002
EEEE
2AA8
EAAE
8AA2
FBBE
ENDCHAR
STARTCHAR bogosity_mask
ENCODING 11
SWIDTH 515 0
DWIDTH 16 0
BBX 15 16 -7 -9
BITMAP
FBBE
FBBE
FBBE
3BB8
FFFE
FFFE
FFFE
FBBE
FBBE
FFFE
FFFE
FFFE
3BB8
FBBE
FBBE
FBBE
ENDCHAR
STARTCHAR bottom_left_corner
ENCODING 12
SWIDTH 515 0
DWIDTH 16 0
BBX 15 15 -5 -6
BITMAP
007C
0042
0022
0012
C00A
A006
9000
8800
8400
8200
8100
8080
8040
8020
7FE0
ENDCHAR
STARTCHAR bottom_left_corner_mask
ENCODING 13
SWIDTH 515 0
DWIDTH 16 0
BBX 15 15 -5 -6
BITMAP
007C
007E
003E
001E
C00E
E006
F000
F800
FC00
FE00
FF00
FF80
FFC0
FFE0
7FE0
ENDCHAR
STARTCHAR bottom_right_corner
ENCODING 14
SWIDTH 515 0
DWIDTH 16 0
BBX 15 15 -9 -6
BITMAP
7C00
8400
8800
9000
A006
C00A
0012
0022
0042
0082
0102
0202
0402
0802
0FFC
ENDCHAR
STARTCHAR bottom_right_corner_mask
ENCODING 15
SWIDTH 515 0
DWIDTH 16 0
BBX 15 15 -9 -6
BITMAP
7C00
FC00
F800
F000
E006
C00E
001E
003E
007E
00FE
01FE
03FE
07FE
0FFE
0FFC
ENDCHAR
STARTCHAR bottom_side
ENCODING 16
SWIDTH 418 0
DWIDTH 13 0
BBX 12 15 -6 -6
BITMAP
0600
0900
1080
1F80
0000
0000
0000
0000
0000
FFF0
4020
2040
1080
0900
0600
ENDCHAR
STARTCHAR bottom_side_mask
ENCODING 17
SWIDTH 418 0
DWIDTH 13 0
BBX 12 15 -6 -6
BITMAP
0600
0F00
1F80
1F80
0000
0000
0000
0000
0000
FFF0
7FE0
3FC0
1F80
0F00
0600
ENDCHAR
STARTCHAR bottom_tee
ENCODING 18
SWIDTH 547 0
DWIDTH 17 0
BBX 16 12 -8 -2
BITMAP
03C0
0240
0240
0240
0240
0240
0240
0240
FE7F
8001
8001
FFFF
ENDCHAR
STARTCHAR bottom_tee_mask
ENCODING 19
SWIDTH 547 0
DWIDTH 17 0
BBX 16 12 -8 -2
BITMAP
03C0
03C0
03C0
03C0
03C0
03C0
03C0
03C0
FFFF
FFFF
FFFF
FFFF
ENDCHAR
STARTCHAR box_spiral
ENCODING 20
SWIDTH 515 0
DWIDTH 16 0
BBX 15 16 -8 -8
BITMAP
FFFE
8000
BFFE
A002
AFFA
A80A
ABEA
AA2A
AAAA
ABAA
A82A
AFEA
A00A
BFFA
8002
FFFE
ENDCHAR
STARTCHAR box_spiral_mask
ENCODING 21
SWIDTH 547 0
DWIDTH 17 0
BBX 16 16 -9 -8
BITMAP
FFFF
FFFF
FFFF
FFFF
FFFF
FFFF
FFFF
FFFF
FFFF
FFFF
FFFF
FFFF
FFFF
FFFF
FFFF
FFFF
ENDCHAR
STARTCHAR center_ptr
ENCODING 22
SWIDTH 418 0
DWIDTH 13 0
BBX 12 16 -5 -16
BITMAP
0F00
0900
1980
1080
30C0
2040
6060
4020
C030
9990
B9D0
E970
0900
0900
0900
0F00
ENDCHAR
STARTCHAR center_ptr_mask
ENCODING 23
SWIDTH 418 0
DWIDTH 13 0
BBX 12 16 -5 -16
BITMAP
0F00
0F00
1F80
1F80
3FC0
3FC0
7FE0
7FE0
FFF0
FFF0
FFF0
EF70
0F00
0F00
0F00
0F00
ENDCHAR
STARTCHAR circle
ENCODING 24
SWIDTH 547 0
DWIDTH 17 0
BBX 16 16 -8 -8
BITMAP
07E0
1C38
300C
6006
43C2
C423
8811
8811
8811
8811
C423
43C2
6006
300C
1C38
07E0
ENDCHAR
STARTCHAR circle_mask
ENCODING 25
SWIDTH 547 0
DWIDTH 17 0
BBX 16 16 -8 -8
BITMAP
07E0
1FF8
3FFC
7FFE
7FFE
FC3F
F81F
F81F
F81F
F81F
FC3F
7FFE
7FFE
3FFC
1FF8
07E0
ENDCHAR
STARTCHAR clock
ENCODING 26
SWIDTH 483 0
DWIDTH 15 0
BBX 14 16 -6 -13
BITMAP
3FF0
6798
C8CC
9324
9E24
8844
C78C
7FF8
5328
5328
5328
57A8
D32C
F03C
FFFC
FFFC
ENDCHAR
STARTCHAR clock_mask
ENCODING 27
SWIDTH 515 0
DWIDTH 16 0
BBX 15 16 -6 -13
BITMAP
7FF8
EF9C
DBEE
B7B6
BFF6
9F66
CFCE
FFFC
D7AC
D7AC
D7AC
DFEC
D7AE
F33E
FFFE
FFFE
ENDCHAR
STARTCHAR coffee_mug
ENCODING 28
SWIDTH 515 0
DWIDTH 16 0
BBX 15 16 -7 -7
BITMAP
1FF0
2008
6006
501A
4FE2
C002
C002
4002
4002
591A
6AAA
EBAA
DA9A
4002
4002
3FFC
ENDCHAR
STARTCHAR coffee_mug_mask
ENCODING 29
SWIDTH 547 0
DWIDTH 17 0
BBX 16 16 -8 -7
BITMAP
1FF8
3FFC
7FFF
7FFF
FFFF
FFFF
FFFF
FFFF
7FFF
7FFF
FFFF
FFFF
FFFF
FFFF
7FFF
3FFE
ENDCHAR
STARTCHAR cross
ENCODING 30
SWIDTH 547 0
DWIDTH 17 0
BBX 16 16 -7 -9
BITMAP
0540
0540
0540
0540
0540
FD7F
0100
FFFF
0100
FD7F
0540
0540
0540
0540
0540
07C0
ENDCHAR
STARTCHAR cross_mask
ENCODING 31
SWIDTH 547 0
DWIDTH 17 0
BBX 16 16 -7 -9
BITMAP
07C0
07C0
07C0
07C0
07C0
FFFF
FFFF
FFFF
FFFF
FFFF
07C0
07C0
07C0
07C0
07C0
07C0
ENDCHAR
STARTCHAR cross_reverse
ENCODING 32
SWIDTH 547 0
DWIDTH 17 0
BBX 16 15 -7 -8
BITMAP
4284
A28A
5294
2AA8
16D0
0AA0
FD7F
0280
FD7F
0AA0
16D0
2AA8
5294
A28A
4284
ENDCHAR
STARTCHAR cross_reverse_mask
ENCODING 33
SWIDTH 547 0
DWIDTH 17 0
BBX 16 15 -7 -8
BITMAP
66CC
B6DB
DEF6
6EEC
36D8
FABF
FD7F
0380
FD7F
FABF
36D8
6EEC
DEF6
B6DB
66CC
ENDCHAR
STARTCHAR crosshair
ENCODING 34
SWIDTH 547 0
DWIDTH 17 0
BBX 16 15 -7 -8
BITMAP
0100
0100
0100
0100
0100
0100
0100
FEFF
0100
0100
0100
0100
0100
0100
0100
ENDCHAR
STARTCHAR crosshair_mask
ENCODING 35
SWIDTH 547 0
DWIDTH 17 0
BBX 16 15 -7 -8
BITMAP
0100
0100
0100
0100
0100
0100
0100
FEFF
0100
0100
0100
0100
0100
0100
0100
ENDCHAR
STARTCHAR diamond_cross
ENCODING 36
SWIDTH 515 0
DWIDTH 16 0
BBX 15 15 -7 -8
BITMAP
0280
06C0
0AA0
1290
2288
4284
FEFE
0000
FEFE
4284
2288
1290
0AA0
06C0
0280
ENDCHAR
STARTCHAR diamond_cross_mask
ENCODING 37
SWIDTH 547 0
DWIDTH 17 0
BBX 16 16 -8 -8
BITMAP
07C0
0FE0
1FF0
3FF8
7BDC
F3CE
FFFF
FFFF
FFFF
FFFF
73DE
3BFC
1FF8
0FF0
07E0
03C0
ENDCHAR
STARTCHAR dot
ENCODING 38
SWIDTH 418 0
DWIDTH 13 0
BBX 12 12 -6 -6
BITMAP
1F80
70E0
4020
C030
8010
8010
8010
8010
C030
4020
70E0
1F80
ENDCHAR
STARTCHAR dot_mask
ENCODING 39
SWIDTH 418 0
DWIDTH 13 0
BBX 12 12 -6 -6
BITMAP
1F80
7FE0
7FE0
FFF0
FFF0
FFF0
FFF0
FFF0
FFF0
7FE0
7FE0
1F80
ENDCHAR
STARTCHAR dotbox
ENCODING 40
SWIDTH 483 0
DWIDTH 15 0
BBX 14 14 -7 -8
BITMAP
FFFC
8004
BFF4
A014
A014
A794
A494
A494
A794
A014
A014
BFF4
8004
FFFC
ENDCHAR
STARTCHAR dotbox_mask
ENCODING 41
SWIDTH 483 0
DWIDTH 15 0
BBX 14 14 -7 -8
BITMAP
FFFC
FFFC
FFFC
E01C
E01C
E79C
E79C
E79C
E79C
E01C
E01C
FFFC
FFFC
FFFC
ENDCHAR
STARTCHAR double_arrow
ENCODING 42
SWIDTH 418 0
DWIDTH 13 0
BBX 12 16 -6 -8
BITMAP
0600
0900
1080
2040
4020
8010
FFF0
0000
0000
FFF0
8010
4020
2040
1080
0900
0600
ENDCHAR
STARTCHAR double_arrow_mask
ENCODING 43
SWIDTH 418 0
DWIDTH 13 0
BBX 12 16 -6 -8
BITMAP
0600
0F00
1F80
3FC0
7FE0
FFF0
FFF0
0000
0000
FFF0
FFF0
7FE0
3FC0
1F80
0F00
0600
ENDCHAR
STARTCHAR draft_large
ENCODING 44
SWIDTH 547 0
DWIDTH 17 0
BBX 16 16 -15 -16
BITMAP
0003
000D
0033
00C2
0304
0C04
1008
0F08
0290
0590
0AA0
14A0
2840
5000
A000
C000
ENDCHAR
STARTCHAR draft_large_mask
ENCODING 45
SWIDTH 547 0
DWIDTH 17 0
BBX 16 16 -15 -16
BITMAP
0003
000F
003F
00FE
03FC
0FFC
1FF8
0FF8
03F0
07F0
0EE0
1CE0
3840
7000
E000
C000
ENDCHAR
STARTCHAR draft_small
ENCODING 46
SWIDTH 515 0
DWIDTH 16 0
BBX 15 15 -14 -15
BITMAP
0006
001A
0064
0184
0208
0188
0150
02D0
0520
0A00
1400
2800
5000
A000
C000
ENDCHAR
STARTCHAR draft_small_mask
ENCODING 47
SWIDTH 515 0
DWIDTH 16 0
BBX 15 15 -14 -15
BITMAP
0006
001E
007C
01FC
03F8
01F8
01F0
03F0
0720
0E00
1C00
3800
7000
E000
C000
ENDCHAR
STARTCHAR draped_box
ENCODING 48
SWIDTH 418 0
DWIDTH 13 0
BBX 12 12 -6 -7
BITMAP
FFF0
8910
9990
B0D0
E070
8610
8610
E070
B0D0
9990
8910
FFF0
ENDCHAR
STARTCHAR draped_box_mask
ENCODING 49
SWIDTH 483 0
DWIDTH 15 0
BBX 14 14 -7 -8
BITMAP
FFFC
FFFC
CFCC
DFEC
FCFC
FB7C
F7BC
F7BC
FB7C
FCFC
DFEC
CFCC
FFFC
FFFC
ENDCHAR
STARTCHAR exchange
ENCODING 50
SWIDTH 547 0
DWIDTH 17 0
BBX 16 18 -7 -9
BITMAP
0180
C660
A810
9188
8264
B414
B30C
8100
FF00
00FF
0081
304D
282D
2641
1189
0815
0663
0180
ENDCHAR
STARTCHAR exchange_mask
ENCODING 51
SWIDTH 547 0
DWIDTH 17 0
BBX 16 18 -7 -9
BITMAP
0180
C7E0
EFF0
FFF8
FE7C
FC1C
FF0C
FF00
FF00
00FF
00FF
307F
383F
3E7F
1FFF
0FF7
07E3
0180
ENDCHAR
STARTCHAR fleur
ENCODING 52
SWIDTH 773 0
DWIDTH 24 0
BBX 23 23 -11 -12
BITMAP
001000
002800
004400
008200
010100
00FE00
000000
080020
140050
240048
440044
840042
440044
240048
140050
080020
000000
00FE00
010100
008200
004400
002800
001000
ENDCHAR
STARTCHAR fleur_mask
ENCODING 53
SWIDTH 773 0
DWIDTH 24 0
BBX 23 23 -11 -12
BITMAP
001000
003800
007C00
00FE00
01FF00
00FE00
000000
080020
1C0070
3C0078
7C007C
FC007E
7C007C
3C0078
1C0070
080020
000000
00FE00
01FF00
00FE00
007C00
003800
001000
ENDCHAR
STARTCHAR gobbler
ENCODING 54
SWIDTH 547 0
DWIDTH 17 0
BBX 16 15 -14 -13
BITMAP
0078
0070
8033
9FB0
FFF0
FE30
FC30
6038
00F0
1FE0
0800
0800
0800
0800
1E00
ENDCHAR
STARTCHAR gobbler_mask
ENCODING 55
SWIDTH 547 0
DWIDTH 17 0
BBX 16 16 -14 -13
BITMAP
00FC
00FC
C0FF
FFFF
FFFF
FFFC
FFFC
FFFC
FFFC
FFFC
7FF8
1FF0
1C00
1C00
3F00
3F00
ENDCHAR
STARTCHAR gumby
ENCODING 56
SWIDTH 547 0
DWIDTH 17 0
BBX 16 16 -2 -16
BITMAP
3F00
1080
C840
EAA0
C820
CBA0
F83C
383F
0827
0827
092F
0927
0920
1110
2108
3EF8
ENDCHAR
STARTCHAR gumby_mask
ENCODING 57
SWIDTH 547 0
DWIDTH 17 0
BBX 16 16 -2 -16
BITMAP
3F00
DF80
EFC0
FFE0
EFE0
EFFC
FFFE
FFFF
3FEF
0FEF
0FFF
0FEF
0FE7
1FF0
3FF8
3EF8
ENDCHAR
STARTCHAR hand1
ENCODING 58
SWIDTH 676 0
DWIDTH 21 0
BBX 20 28 -1 -27
BITMAP
600000
900000
900000
900000
4FF800
492400
489200
249100
244900
260080
600080
900080
900080
800080
800080
400080
200080
100100
080100
0601C0
018E40
007020
008020
00B010
008010
004000
004000
004000
ENDCHAR
STARTCHAR hand1_mask
ENCODING 59
SWIDTH 676 0
DWIDTH 21 0
BBX 20 28 -1 -27
BITMAP
600000
F00000
F00000
F00000
7FF800
7FFC00
7FFE00
3FFF00
3FFF00
3FFF80
7FFF80
FFFF80
FFFF80
FFFF80
FFFF80
7FFF80
3FFF80
1FFF00
0FFF00
07FFC0
01FFC0
007FE0
00FFE0
00FFF0
00FFF0
007F80
007C00
006000
ENDCHAR
STARTCHAR hand2
ENCODING 60
SWIDTH 547 0
DWIDTH 17 0
BBX 16 19 -4 -18
BITMAP
0C00
1200
1200
1200
1200
13FF
1249
7249
9249
9001
8001
8001
4001
2001
1002
0804
07FC
07FC
07FC
ENDCHAR
STARTCHAR hand2_mask
ENCODING 61
SWIDTH 547 0
DWIDTH 17 0
BBX 16 19 -4 -18
BITMAP
0C00
1E00
1E00
1E00
1E00
1FFF
1FFF
7FFF
FFFF
FFFF
FFFF
FFFF
7FFF
3FFF
1FFE
0FFC
07FC
07FC
07FC
ENDCHAR
STARTCHAR heart
ENCODING 62
SWIDTH 515 0
DWIDTH 16 0
BBX 15 14 -7 -8
BITMAP
3EF8
638C
C106
8002
86C2
8922
8822
C446
628C
3118
1830
0C60
06C0
0380
ENDCHAR
STARTCHAR heart_mask
ENCODING 63
SWIDTH 515 0
DWIDTH 16 0
BBX 15 14 -7 -8
BITMAP
3EF8
7FFC
FFFE
FFFE
FFFE
F93E
F83E
FC7E
7EFC
3FF8
1FF0
0FE0
07C0
0380
ENDCHAR
STARTCHAR icon
ENCODING 64
SWIDTH 547 0
DWIDTH 17 0
BBX 16 16 -8 -8
BITMAP
FFFF
D555
AAAB
D555
A00B
D005
A00B
D005
A00B
D005
A00B
D005
AAAB
D555
AAAB
FFFF
ENDCHAR
STARTCHAR icon_mask
ENCODING 65
SWIDTH 547 0
DWIDTH 17 0
BBX 16 16 -8 -8
BITMAP
FFFF
FFFF
FFFF
FFFF
FFFF
FFFF
FFFF
FFFF
FFFF
FFFF
FFFF
FFFF
FFFF
FFFF
FFFF
FFFF
ENDCHAR
STARTCHAR iron_cross
ENCODING 66
SWIDTH 483 0
DWIDTH 15 0
BBX 14 14 -7 -8
BITMAP
7FF8
3FF0
9FE4
CFCC
E79C
F33C
FFFC
FFFC
F33C
E79C
CFCC
9FE4
3FF0
7FF8
ENDCHAR
STARTCHAR iron_cross_mask
ENCODING 67
SWIDTH 547 0
DWIDTH 17 0
BBX 16 16 -8 -9
BITMAP
3FFC
7FFE
7FFE
FFFF
FFFF
FFFF
FFFF
FFFF
FFFF
FFFF
FFFF
FFFF
FFFF
7FFE
7FFE
3FFC
ENDCHAR
STARTCHAR left_ptr
ENCODING 68
SWIDTH 451 0
DWIDTH 14 0
BBX 13 20 0 -20
BITMAP
C000
A000
9000
8800
8400
9E00
A000
C000
8FC0
1020
2010
47F8
8800
9000
A180
C240
8240
0120
0120
00C0
ENDCHAR
STARTCHAR left_ptr_mask
ENCODING 69
SWIDTH 451 0
DWIDTH 14 0
BBX 13 20 0 -20
BITMAP
C000
E000
F000
F800
FC00
FE00
E000
C000
8FC0
1FE0
3FF0
7FF8
F800
F000
E180
C3C0
83C0
01E0
01E0
00C0
ENDCHAR
STARTCHAR left_side
ENCODING 70
SWIDTH 515 0
DWIDTH 16 0
BBX 15 12 -5 -7
BITMAP
0400
0C00
1410
2418
4414
8412
8412
4414
2418
1410
0C00
0400
ENDCHAR
STARTCHAR left_side_mask
ENCODING 71
SWIDTH 515 0
DWIDTH 16 0
BBX 15 12 -5 -7
BITMAP
0400
0C00
1C10
3C18
7C1C
FC1E
FC1E
7C1C
3C18
1C10
0C00
0400
ENDCHAR
STARTCHAR left_tee
ENCODING 72
SWIDTH 418 0
DWIDTH 13 0
BBX 12 16 -1 -8
BITMAP
F000
9000
9000
9000
9000
9000
9FF0
8010
8010
9FF0
9000
9000
9000
9000
9000
F000
ENDCHAR
STARTCHAR left_tee_mask
ENCODING 73
SWIDTH 418 0
DWIDTH 13 0
BBX 12 16 -1 -8
BITMAP
F000
F000
F000
F000
F000
F000
FFF0
FFF0
FFF0
FFF0
F000
F000
F000
F000
F000
F000
ENDCHAR
STARTCHAR leftbutton
ENCODING 74
SWIDTH 547 0
DWIDTH 17 0
BBX 16 16 -8 -8
BITMAP
8003
7FFD
7FFD
4445
4555
4555
4555
4555
4445
7FFD
7FFD
7FFD
7FFD
7FFD
7FFD
8003
ENDCHAR
STARTCHAR leftbutton_mask
ENCODING 75
SWIDTH 547 0
DWIDTH 17 0
BBX 16 16 -8 -8
BITMAP
FFFF
FFFF
FFFF
FFFF
FFFF
FFFF
FFFF
FFFF
FFFF
FFFF
FFFF
FFFF
FFFF
FFFF
FFFF
FFFF
ENDCHAR
STARTCHAR ll_angle
ENCODING 76
SWIDTH 418 0
DWIDTH 13 0
BBX 12 12 -1 -2
BITMAP
F000
9000
9000
9000
9000
9000
9000
9000
9FF0
8010
8010
FFF0
ENDCHAR
STARTCHAR ll_angle_mask
ENCODING 77
SWIDTH 418 0
DWIDTH 13 0
BBX 12 12 -1 -2
BITMAP
F000
F000
F000
F000
F000
F000
F000
F000
FFF0
FFF0
FFF0
FFF0
ENDCHAR
STARTCHAR lr_angle
ENCODING 78
SWIDTH 418 0
DWIDTH 13 0
BBX 12 12 -10 -2
BITMAP
00F0
0090
0090
0090
0090
0090
0090
0090
FF90
8010
8010
FFF0
ENDCHAR
STARTCHAR lr_angle_mask
ENCODING 79
SWIDTH 418 0
DWIDTH 13 0
BBX 12 12 -10 -2
BITMAP
00F0
00F0
00F0
00F0
00F0
00F0
00F0
00F0
FFF0
FFF0
FFF0
FFF0
ENDCHAR
STARTCHAR man
ENCODING 80
SWIDTH 547 0
DWIDTH 17 0
BBX 16 16 -14 -11
BITMAP
0380
1EF0
0280
8100
4387
244B
1D70
0540
0440
0280
0440
0920
1290
1450
783C
F83F
ENDCHAR
STARTCHAR man_mask
ENCODING 81
SWIDTH 547 0
DWIDTH 17 0
BBX 16 16 -14 -11
BITMAP
1FE0
3FF0
3FF8
C382
E7C7
7FFF
3FFB
1FF0
07E0
07C0
0FE0
1FF0
3FF8
7EFC
FC7F
FC7F
ENDCHAR
STARTCHAR middlebutton
ENCODING 82
SWIDTH 547 0
DWIDTH 17 0
BBX 16 16 -8 -8
BITMAP
8003
7FFD
7FFD
4445
5455
5455
5455
5455
4445
7FFD
7FFD
7FFD
7FFD
7FFD
7FFD
8003
ENDCHAR
STARTCHAR middlebutton_mask
ENCODING 83
SWIDTH 547 0
DWIDTH 17 0
BBX 16 16 -8 -8
BITMAP
FFFF
FFFF
FFFF
FFFF
FFFF
FFFF
FFFF
FFFF
FFFF
FFFF
FFFF
FFFF
FFFF
FFFF
FFFF
FFFF
ENDCHAR
STARTCHAR mouse
ENCODING 84
SWIDTH 515 0
DWIDTH 16 0
BBX 15 14 -4 -13
BITMAP
0700
0C00
0600
0300
7FF8
8004
B336
B336
B336
8006
8006
601C
1860
0780
ENDCHAR
STARTCHAR mouse_mask
ENCODING 85
SWIDTH 547 0
DWIDTH 17 0
BBX 16 16 -5 -14
BITMAP
0F80
1F80
0F00
0700
7FF8
FFFC
FFFF
FFFF
FFFF
FFFF
FFFF
FFFF
3FFF
1FF0
0FC0
0780
ENDCHAR
STARTCHAR pencil
ENCODING 86
SWIDTH 644 0
DWIDTH 20 0
BBX 19 19 0 -1
BITMAP
000180
000240
0004A0
000920
001240
002480
004900
009200
012400
024800
049000
092000
124000
148000
290000
260000
580000
A00000
C00000
ENDCHAR
STARTCHAR pencil_mask
ENCODING 87
SWIDTH 644 0
DWIDTH 20 0
BBX 19 19 0 -1
BITMAP
000180
0003C0
0007E0
000FE0
001FC0
003F80
007F00
00FE00
01FC00
03F800
07F000
0FE000
1FC000
1F8000
3F0000
3E0000
780000
E00000
C00000
ENDCHAR
STARTCHAR pirate
ENCODING 88
SWIDTH 1482 0
DWIDTH 46 0
BBX 45 39 -20 -15
BITMAP
000000000700
000000000880
0000000010C0
2000000010A0
500000000890
A84000000C08
5420FFC01008
2A4700382108
158800044190
0B5000028260
072000010400
04C000008800
2A4000009000
11400000A000
00C20010C000
004500288000
004833048000
00420C108000
0023E1F10000
0027F3F90000
0027F3F90000
0027E1F90000
0021CCE10000
00180C060000
00041E080000
000392700000
000140A00000
000240900000
0004AA480000
0009BF640000
0012AA520000
0024C0C90000
00493F248000
009200124000
012400092000
010800042000
021000021000
026000019000
03800000F000
ENDCHAR
STARTCHAR pirate_mask
ENCODING 89
SWIDTH 1482 0
DWIDTH 46 0
BBX 45 39 -20 -15
BITMAP
000000000700
000000000F80
000000001FC0
200000001FE0
700000000FF0
F84000000FF8
7C20FFC01FF8
3E47FFF83FF8
1F8FFFFC7FF0
0FDFFFFEFE60
07FFFFFFFC00
07FFFFFFF800
2BFFFFFFF000
11FFFFFFE000
00FFFFFFC000
007FFFFF8000
007FFFFF8000
007FFFFF8000
003FFFFF0000
003FFFFF0000
003FFFFF0000
003FFFFF0000
003FFFFF0000
001FFFFE0000
0007FFF80000
0003FFF00000
0001FFE00000
0003FFF00000
0007FFF80000
000FFFFC0000
001FFFFE0000
003FFFFF0000
007F3F3F8000
00FE001FC000
01FC000FE000
01F80007E000
03F00003F000
03E00001F000
03800000F000
ENDCHAR
STARTCHAR plus
ENCODING 90
SWIDTH 418 0
DWIDTH 13 0
BBX 12 12 -5 -6
BITMAP
0F00
0900
0900
0900
F9F0
8010
8010
F9F0
0900
0900
0900
0F00
ENDCHAR
STARTCHAR plus_mask
ENCODING 91
SWIDTH 418 0
DWIDTH 13 0
BBX 12 12 -5 -6
BITMAP
0F00
0F00
0F00
0F00
FFF0
FFF0
FFF0
FFF0
0F00
0F00
0F00
0F00
ENDCHAR
STARTCHAR question_arrow
ENCODING 92
SWIDTH 644 0
DWIDTH 20 0
BBX 19 34 0 -34
BITMAP
C00000
A00000
900000
880000
840000
9E0000
A00000
C07E00
818100
020080
047C40
088220
090120
090120
090120
060120
000220
000440
000880
001100
002200
004400
004400
004800
004800
004800
003000
000000
007800
008400
008400
008400
008400
007800
ENDCHAR
STARTCHAR question_arrow_mask
ENCODING 93
SWIDTH 644 0
DWIDTH 20 0
BBX 19 34 0 -34
BITMAP
C00000
E00000
F00000
F80000
FC0000
FE0000
E00000
C07E00
81FF00
03FF80
07FFC0
0F83E0
0F01E0
0F01E0
0F01E0
0601E0
0003E0
0007C0
000F80
001F00
003E00
007C00
007C00
007800
007800
007800
003000
000000
007800
00FC00
00FC00
00FC00
00FC00
007800
ENDCHAR
STARTCHAR right_ptr
ENCODING 94
SWIDTH 451 0
DWIDTH 14 0
BBX 13 20 -12 -20
BITMAP
0018
0028
0048
0088
0108
03C8
0028
0018
1F88
2040
4020
FF10
0088
0048
0C28
1218
1208
2400
2400
1800
ENDCHAR
STARTCHAR right_ptr_mask
ENCODING 95
SWIDTH 451 0
DWIDTH 14 0
BBX 13 20 -12 -20
BITMAP
0018
0038
0078
00F8
01F8
03F8
0038
0018
1F88
3FC0
7FE0
FFF0
00F8
0078
0C38
1E18
1E08
3C00
3C00
1800
ENDCHAR
STARTCHAR right_side
ENCODING 96
SWIDTH 547 0
DWIDTH 17 0
BBX 16 12 -9 -7
BITMAP
0020
0030
1028
3024
5022
9021
9021
5022
3024
1028
0030
0020
ENDCHAR
STARTCHAR right_side_mask
ENCODING 97
SWIDTH 547 0
DWIDTH 17 0
BBX 16 12 -9 -7
BITMAP
0020
0030
1038
303C
703E
F03F
F03F
703E
303C
1038
0030
0020
ENDCHAR
STARTCHAR right_tee
ENCODING 98
SWIDTH 418 0
DWIDTH 13 0
BBX 12 16 -10 -8
BITMAP
00F0
0090
0090
0090
0090
0090
FF90
8010
8010
FF90
0090
0090
0090
0090
0090
00F0
ENDCHAR
STARTCHAR right_tee_mask
ENCODING 99
SWIDTH 418 0
DWIDTH 13 0
BBX 12 16 -10 -8
BITMAP
00F0
00F0
00F0
00F0
00F0
00F0
FFF0
FFF0
FFF0
FFF0
00F0
00F0
00F0
00F0
00F0
00F0
ENDCHAR
STARTCHAR rightbutton
ENCODING 100
SWIDTH 547 0
DWIDTH 17 0
BBX 16 16 -8 -8
BITMAP
8003
7FFD
7FFD
4445
5545
5545
5545
5545
4445
7FFD
7FFD
7FFD
7FFD
7FFD
7FFD
8003
ENDCHAR
STARTCHAR rightbutton_mask
ENCODING 101
SWIDTH 547 0
DWIDTH 17 0
BBX 16 16 -8 -8
BITMAP
FFFF
FFFF
FFFF
FFFF
FFFF
FFFF
FFFF
FFFF
FFFF
FFFF
FFFF
FFFF
FFFF
FFFF
FFFF
FFFF
ENDCHAR
STARTCHAR rtl_logo
ENCODING 102
SWIDTH 547 0
DWIDTH 17 0
BBX 16 16 -7 -9
BITMAP
FFFF
8001
BFDD
A055
BFD5
8015
BBD5
AA55
AA55
ABDD
A801
ABFD
AA05
BBFD
8001
FFFF
ENDCHAR
STARTCHAR rtl_logo_mask
ENCODING 103
SWIDTH 547 0
DWIDTH 17 0
BBX 16 16 -7 -9
BITMAP
FFFF
FFFF
FFFF
E077
FFF7
FFF7
FFF7
EE77
EE77
EFFF
EFFF
EFFF
EE07
FFFF
FFFF
FFFF
ENDCHAR
STARTCHAR sailboat
ENCODING 104
SWIDTH 547 0
DWIDTH 17 0
BBX 16 16 -8 -16
BITMAP
00C0
00A0
01A0
0290
0290
0490
0488
0888
0888
1084
1084
2084
2083
41C7
FFF8
7FE0
ENDCHAR
STARTCHAR sailboat_mask
ENCODING 105
SWIDTH 547 0
DWIDTH 17 0
BBX 16 16 -8 -16
BITMAP
00C0
00E0
01E0
03F0
03F0
07F0
07F8
0FF8
0FF8
1FFC
1FFC
3FFC
3FFF
7FFF
FFF8
7FE0
ENDCHAR
STARTCHAR sb_down_arrow
ENCODING 106
SWIDTH 322 0
DWIDTH 10 0
BBX 9 16 -4 -1
BITMAP
3E00
2200
2200
2200
2200
2200
2200
2200
2200
2200
E380
8080
4100
2200
1400
0800
ENDCHAR
STARTCHAR sb_down_arrow_mask
ENCODING 107
SWIDTH 322 0
DWIDTH 10 0
BBX 9 16 -4 -1
BITMAP
3E00
3E00
3E00
3E00
3E00
3E00
3E00
3E00
3E00
3E00
FF80
FF80
7F00
3E00
1C00
0800
ENDCHAR
STARTCHAR sb_h_double_arrow
ENCODING 108
SWIDTH 580 0
DWIDTH 18 0
BBX 17 9 -8 -5
BITMAP
0C1800
141400
241200
441100
841080
441100
241200
141400
0C1800
ENDCHAR
STARTCHAR sb_h_double_arrow_mask
ENCODING 109
SWIDTH 580 0
DWIDTH 18 0
BBX 17 9 -8 -5
BITMAP
0C1800
1C1C00
3C1E00
7C1F00
FC1F80
7C1F00
3C1E00
1C1C00
0C1800
ENDCHAR
STARTCHAR sb_left_arrow
ENCODING 110
SWIDTH 547 0
DWIDTH 17 0
BBX 16 9 0 -5
BITMAP
0C00
1400
27FF
4001
8001
4001
27FF
1400
0C00
ENDCHAR
STARTCHAR sb_left_arrow_mask
ENCODING 111
SWIDTH 547 0
DWIDTH 17 0
BBX 16 9 0 -5
BITMAP
0C00
1C00
3FFF
7FFF
FFFF
7FFF
3FFF
1C00
0C00
ENDCHAR
STARTCHAR sb_right_arrow
ENCODING 112
SWIDTH 547 0
DWIDTH 17 0
BBX 16 9 -15 -5
BITMAP
0030
0028
FFE4
8002
8001
8002
FFE4
0028
0030
ENDCHAR
STARTCHAR sb_right_arrow_mask
ENCODING 113
SWIDTH 547 0
DWIDTH 17 0
BBX 16 9 -15 -5
BITMAP
0030
0038
FFFC
FFFE
FFFF
FFFE
FFFC
0038
0030
ENDCHAR
STARTCHAR sb_up_arrow
ENCODING 114
SWIDTH 322 0
DWIDTH 10 0
BBX 9 16 -4 -16
BITMAP
0800
1400
2200
4100
8080
E380
2200
2200
2200
2200
2200
2200
2200
2200
2200
3E00
ENDCHAR
STARTCHAR sb_up_arrow_mask
ENCODING 115
SWIDTH 322 0
DWIDTH 10 0
BBX 9 16 -4 -16
BITMAP
0800
1C00
3E00
7F00
FF80
FF80
3E00
3E00
3E00
3E00
3E00
3E00
3E00
3E00
3E00
3E00
ENDCHAR
STARTCHAR sb_v_double_arrow
ENCODING 116
SWIDTH 386 0
DWIDTH 12 0
BBX 11 17 -5 -9
BITMAP
0400
0A00
1100
2080
4040
FFE0
0000
0000
0000
0000
0000
FFE0
4040
2080
1100
0A00
0400
ENDCHAR
STARTCHAR sb_v_double_arrow_mask
ENCODING 117
SWIDTH 386 0
DWIDTH 12 0
BBX 11 17 -5 -9
BITMAP
0400
0E00
1F00
3F80
7FC0
FFE0
0000
0000
0000
0000
0000
FFE0
7FC0
3F80
1F00
0E00
0400
ENDCHAR
STARTCHAR shuttle
ENCODING 118
SWIDTH 515 0
DWIDTH 16 0
BBX 15 16 -10 -16
BITMAP
0020
0070
00F8
01DE
05DE
09DE
11DE
11DE
11DE
11DE
31DE
71DE
FDDE
1888
0078
0030
ENDCHAR
STARTCHAR shuttle_mask
ENCODING 119
SWIDTH 547 0
DWIDTH 17 0
BBX 16 16 -11 -16
BITMAP
0038
007C
00FE
00FF
06FF
0EFF
1EFF
1EFF
1EFF
1EFF
3EFF
7EFF
FEFF
7EFE
0C7E
003C
ENDCHAR
STARTCHAR sizing
ENCODING 120
SWIDTH 547 0
DWIDTH 17 0
BBX 16 16 -8 -8
BITMAP
FFC0
8040
BFC0
A000
AFF0
A810
ABD7
AA55
AA55
EBD5
0815
0FED
0015
03F9
0201
03FF
ENDCHAR
STARTCHAR sizing_mask
ENCODING 121
SWIDTH 547 0
DWIDTH 17 0
BBX 16 16 -8 -8
BITMAP
FFC0
FFC0
FFC0
E000
EFF0
EFF0
EFF7
EE77
EE77
EFF7
0FF7
0FFF
001F
03FF
03FF
03FF
ENDCHAR
STARTCHAR spider
ENCODING 122
SWIDTH 1675 0
DWIDTH 52 0
BBX 51 26 -21 -8
BITMAP
00000000003800
00000000304400
00000800508400
00101400493400
00282200AA5200
00444D01249A00
065295FF597E00
0599A603F2C600
08E4CC00458600
083250004F3600
13896C0C747600
12C4D77208B300
26A39D72312300
2510D7642227E0
250C5E3C4C2400
4A024000882400
4A01AE08B02C00
5C006BC8102800
5000C848E02800
30009C6F801800
3000A7EC001800
3000C038000C00
20004020000700
60000000000000
C0000000000000
80000000000000
ENDCHAR
STARTCHAR spider_mask
ENCODING 123
SWIDTH 1675 0
DWIDTH 52 0
BBX 51 26 -21 -8
BITMAP
00000000003800
00000000307C00
0000080070FC00
00101C0079FC00
00383E00FBDE00
007C7F01FF9E00
067EF7FFDF7E00
07FFE7FFFEFE00
0FE7CFFFFDFE00
0FF3DFFFFFFE00
1FF9FFFFF7FE00
1FFCFFFFFFBF00
3FBFFFFFFF3F00
3F1FFFFFFE3FE0
3F0FFFFFFC3C00
7E03FFFFF83C00
7E01FFFFF03C00
7C007FFFF03800
7000FFFFE03800
3000FFFF801800
3000E7FC001800
3000C038000C00
20004020000700
60000000000000
C0000000000000
80000000000000
ENDCHAR
STARTCHAR spraycan
ENCODING 124
SWIDTH 386 0
DWIDTH 12 0
BBX 11 16 -9 -14
BITMAP
0060
0100
3460
7900
6860
FC00
8400
E400
A400
E400
A400
E400
E400
8400
8400
FC00
ENDCHAR
STARTCHAR spraycan_mask
ENCODING 125
SWIDTH 418 0
DWIDTH 13 0
BBX 12 16 -10 -14
BITMAP
0030
18B0
3EB0
3EB0
7EB0
FF00
FF00
FF00
FF00
FF00
FF00
FF00
FF00
FF00
FF00
FF00
ENDCHAR
STARTCHAR star
ENCODING 126
SWIDTH 515 0
DWIDTH 16 0
BBX 15 16 -7 -9
BITMAP
0100
0280
0280
0280
0440
0440
0440
3938
C006
3838
0920
1290
2448
2828
3018
2008
ENDCHAR
STARTCHAR star_mask
ENCODING 127
SWIDTH 547 0
DWIDTH 17 0
BBX 16 16 -8 -9
BITMAP
0180
03C0
03C0
07C0
06E0
0E60
1E78
FDBE
E007
FC3E
3DB8
3BD8
76EC
7C7C
783C
701C
ENDCHAR
STARTCHAR target
ENCODING 128
SWIDTH 515 0
DWIDTH 16 0
BBX 15 13 -7 -7
BITMAP
0380
0FE0
1C70
3018
600C
C106
C286
C106
600C
3018
1C70
0FE0
0380
ENDCHAR
STARTCHAR target_mask
ENCODING 129
SWIDTH 547 0
DWIDTH 17 0
BBX 16 14 -8 -7
BITMAP
07C0
0FE0
1FF0
3E78
781C
F10E
E387
E7C7
E387
F10E
781C
3E78
1FF0
07C0
ENDCHAR
STARTCHAR tcross
ENCODING 130
SWIDTH 515 0
DWIDTH 16 0
BBX 15 15 -7 -8
BITMAP
0380
0280
0280
0280
0280
0280
FEFE
8002
FEFE
0280
0280
0280
0280
0280
0380
ENDCHAR
STARTCHAR tcross_mask
ENCODING 131
SWIDTH 515 0
DWIDTH 16 0
BBX 15 15 -7 -8
BITMAP
0380
0380
0380
0380
0380
0380
FFFE
FFFE
FFFE
0380
0380
0380
0380
0380
0380
ENDCHAR
STARTCHAR top_left_arrow
ENCODING 132
SWIDTH 547 0
DWIDTH 17 0
BBX 16 16 0 -16
BITMAP
E000
9800
8600
4200
4460
289C
3104
027C
0440
09A0
0950
0528
0514
070A
0005
0003
ENDCHAR
STARTCHAR top_left_arrow_mask
ENCODING 133
SWIDTH 547 0
DWIDTH 17 0
BBX 16 16 0 -16
BITMAP
E000
F800
FE00
7E00
7C60
38FC
31FC
03FC
07C0
0FE0
0F70
0738
071C
070E
0007
0003
ENDCHAR
STARTCHAR top_left_corner
ENCODING 134
SWIDTH 515 0
DWIDTH 16 0
BBX 15 15 -5 -10
BITMAP
7FE0
8020
8040
8080
8100
8200
8400
8800
9000
A006
C00A
0012
0022
0042
007E
ENDCHAR
STARTCHAR top_left_corner_mask
ENCODING 135
SWIDTH 515 0
DWIDTH 16 0
BBX 15 15 -5 -10
BITMAP
7FE0
FFE0
FFC0
FF80
FF00
FE00
FC00
F800
F000
E006
C00E
001E
003E
007E
007E
ENDCHAR
STARTCHAR top_right_corner
ENCODING 136
SWIDTH 515 0
DWIDTH 16 0
BBX 15 15 -9 -10
BITMAP
0FFC
0802
0402
0202
0102
0082
0042
0022
0012
C00A
A006
9000
8800
8400
FC00
ENDCHAR
STARTCHAR top_right_corner_mask
ENCODING 137
SWIDTH 515 0
DWIDTH 16 0
BBX 15 15 -9 -10
BITMAP
0FFC
0FFE
07FE
03FE
01FE
00FE
007E
003E
001E
C00E
E006
F000
F800
FC00
FC00
ENDCHAR
STARTCHAR top_side
ENCODING 138
SWIDTH 418 0
DWIDTH 13 0
BBX 12 15 -5 -11
BITMAP
0600
0900
1080
2040
4020
FFF0
0000
0000
0000
0000
0000
3FC0
1080
0900
0600
ENDCHAR
STARTCHAR top_side_mask
ENCODING 139
SWIDTH 418 0
DWIDTH 13 0
BBX 12 15 -5 -11
BITMAP
0600
0F00
1F80
3FC0
7FE0
FFF0
0000
0000
0000
0000
0000
3FC0
1F80
0F00
0600
ENDCHAR
STARTCHAR top_tee
ENCODING 140
SWIDTH 547 0
DWIDTH 17 0
BBX 16 12 -8 -11
BITMAP
FFFF
8001
8001
FE7F
0240
0240
0240
0240
0240
0240
0240
03C0
ENDCHAR
STARTCHAR top_tee_mask
ENCODING 141
SWIDTH 547 0
DWIDTH 17 0
BBX 16 12 -8 -11
BITMAP
FFFF
FFFF
FFFF
FFFF
03C0
03C0
03C0
03C0
03C0
03C0
03C0
03C0
ENDCHAR
STARTCHAR trek
ENCODING 142
SWIDTH 257 0
DWIDTH 8 0
BBX 7 16 -3 -16
BITMAP
10
00
38
7C
FE
EE
FE
7C
38
10
BA
D6
92
82
82
82
ENDCHAR
STARTCHAR trek_mask
ENCODING 143
SWIDTH 322 0
DWIDTH 10 0
BBX 9 16 -4 -16
BITMAP
1C00
1C00
3E00
7F00
FF80
FF80
FF80
7F00
3E00
5D00
FF80
FF80
FF80
EB80
EB80
E380
ENDCHAR
STARTCHAR ul_angle
ENCODING 144
SWIDTH 418 0
DWIDTH 13 0
BBX 12 12 -1 -11
BITMAP
FFF0
8010
8010
9FF0
9000
9000
9000
9000
9000
9000
9000
F000
ENDCHAR
STARTCHAR ul_angle_mask
ENCODING 145
SWIDTH 418 0
DWIDTH 13 0
BBX 12 12 -1 -11
BITMAP
FFF0
FFF0
FFF0
FFF0
F000
F000
F000
F000
F000
F000
F000
F000
ENDCHAR
STARTCHAR umbrella
ENCODING 146
SWIDTH 483 0
DWIDTH 15 0
BBX 14 14 -7 -12
BITMAP
1120
0450
934C
4F90
3260
C218
0200
0200
0200
0200
0200
0280
0280
0100
ENDCHAR
STARTCHAR umbrella_mask
ENCODING 147
SWIDTH 547 0
DWIDTH 17 0
BBX 16 16 -8 -13
BITMAP
1FFE
DFFB
FFFE
7FFF
FFFC
FFFF
F39E
0380
0380
0380
0380
03E0
03E0
03E0
03E0
01C0
ENDCHAR
STARTCHAR ur_angle
ENCODING 148
SWIDTH 418 0
DWIDTH 13 0
BBX 12 12 -10 -11
BITMAP
FFF0
8010
8010
FF90
0090
0090
0090
0090
0090
0090
0090
00F0
ENDCHAR
STARTCHAR ur_angle_mask
ENCODING 149
SWIDTH 418 0
DWIDTH 13 0
BBX 12 12 -10 -11
BITMAP
FFF0
FFF0
FFF0
FFF0
00F0
00F0
00F0
00F0
00F0
00F0
00F0
00F0
ENDCHAR
STARTCHAR watch
ENCODING 150
SWIDTH 612 0
DWIDTH 19 0
BBX 18 23 0 -23
BITMAP
C00000
A00000
900000
880000
840000
820000
9E4000
A0A000
C00000
80E000
0D1400
111200
011000
715380
89F440
711380
022000
244000
088200
092400
06A000
00A000
004000
ENDCHAR
STARTCHAR watch_mask
ENCODING 151
SWIDTH 612 0
DWIDTH 19 0
BBX 18 23 0 -23
BITMAP
C00000
E00000
F00000
F80000
FC0000
FE0000
FE4000
E0E000
C00000
80E000
0DF400
11F200
01F000
71F380
F9F7C0
71F380
03E000
27C000
0F8200
0F6400
06E000
00E000
004000
ENDCHAR
STARTCHAR xterm
ENCODING 152
SWIDTH 322 0
DWIDTH 10 0
BBX 9 16 -4 -8
BITMAP
7700
8080
6300
1400
1400
1400
1400
1400
1400
1400
1400
1400
1400
6300
8080
7700
ENDCHAR
STARTCHAR xterm_mask
ENCODING 153
SWIDTH 322 0
DWIDTH 10 0
BBX 9 16 -4 -8
BITMAP
7700
FF80
7F00
1C00
1C00
1C00
1C00
1C00
1C00
1C00
1C00
1C00
1C00
7F00
FF80
7700
ENDCHAR
ENDFONT
